<?xml version="1.0" encoding="UTF-8" standalone="no"?>
<svg
   xmlns:osb="http://www.openswatchbook.org/uri/2009/osb"
   xmlns:dc="http://purl.org/dc/elements/1.1/"
   xmlns:cc="http://creativecommons.org/ns#"
   xmlns:rdf="http://www.w3.org/1999/02/22-rdf-syntax-ns#"
   xmlns:svg="http://www.w3.org/2000/svg"
   xmlns="http://www.w3.org/2000/svg"
   xmlns:sodipodi="http://sodipodi.sourceforge.net/DTD/sodipodi-0.dtd"
   xmlns:inkscape="http://www.inkscape.org/namespaces/inkscape"
   inkscape:export-ydpi="96"
   inkscape:export-xdpi="96"
   inkscape:export-filename="C:\Users\Nick\Desktop\CLSAG-logo.png"
   width="210mm"
   height="297mm"
   viewBox="0 0 210 297"
   version="1.1"
   id="svg76"
   inkscape:version="1.0 (4035a4fb49, 2020-05-01)"
   sodipodi:docname="CLSAG-logo-fontasshape.svg">
  <defs
     id="defs70">
    <linearGradient
       id="linearGradient905"
       osb:paint="solid">
      <stop
         style="stop-color:#d4aa00;stop-opacity:1;"
         offset="0"
         id="stop903" />
    </linearGradient>
  </defs>
  <sodipodi:namedview
     inkscape:snap-text-baseline="true"
     inkscape:snap-grids="false"
     id="base"
     pagecolor="#ffffff"
     bordercolor="#666666"
     borderopacity="1.0"
     inkscape:pageopacity="0.0"
     inkscape:pageshadow="2"
     inkscape:zoom="1.5306292"
     inkscape:cx="313.98841"
     inkscape:cy="563.4755"
     inkscape:document-units="mm"
     inkscape:current-layer="layer1"
     inkscape:document-rotation="0"
     showgrid="false"
     inkscape:window-width="1920"
     inkscape:window-height="1017"
     inkscape:window-x="-8"
     inkscape:window-y="32"
     inkscape:window-maximized="1">
    <inkscape:grid
       type="xygrid"
       id="grid1025" />
  </sodipodi:namedview>
  <metadata
     id="metadata73">
    <rdf:RDF>
      <cc:Work
         rdf:about="">
        <dc:format>image/svg+xml</dc:format>
        <dc:type
           rdf:resource="http://purl.org/dc/dcmitype/StillImage" />
        <dc:title></dc:title>
      </cc:Work>
    </rdf:RDF>
  </metadata>
  <g
     inkscape:label="Layer 1"
     inkscape:groupmode="layer"
     id="layer1">
    <g
       style="font-size:25.4px;line-height:1.25;font-family:sans-serif;letter-spacing:-3.05594px;fill:#4c4c4c;fill-opacity:1;stroke-width:100;stroke-miterlimit:4;stroke-dasharray:none"
       id="text1007"
       aria-label="C L S A G">
      <path
         id="path998"
         style="font-style:normal;font-variant:normal;font-weight:normal;font-stretch:normal;font-size:25.4px;font-family:Ubuntu;-inkscape-font-specification:Ubuntu;fill:#4c4c4c;fill-opacity:1;stroke-width:100;stroke-miterlimit:4;stroke-dasharray:none"
         d="m 87.394385,180.44947 q -1.8542,0 -3.3782,-0.6096 -1.524,-0.6096 -2.6162,-1.778 -1.0922,-1.1684 -1.7018,-2.8702 -0.5842,-1.7272 -0.5842,-3.937 0,-2.2098 0.6604,-3.9116 0.6858,-1.7272 1.8288,-2.8956 1.143,-1.1684 2.667,-1.778 1.524,-0.6096 3.2512,-0.6096 1.0922,0 1.9558,0.1524 0.889,0.1524 1.524,0.3556 0.6604,0.2032 1.0668,0.4064 0.4064,0.2032 0.5588,0.3048 l -0.7112,2.032 q -0.2286,-0.1524 -0.6604,-0.3302 -0.4318,-0.1778 -0.9906,-0.3556 -0.5334,-0.1778 -1.1938,-0.2794 -0.635,-0.127 -1.2954,-0.127 -1.397,0 -2.5146,0.4826 -1.1176,0.4826 -1.905,1.397 -0.7874,0.9144 -1.2192,2.2352 -0.4064,1.2954 -0.4064,2.921 0,1.5748 0.3556,2.8702 0.381,1.2954 1.1176,2.2352 0.7366,0.9144 1.8288,1.4224 1.1176,0.508 2.5908,0.508 1.7018,0 2.8194,-0.3556 1.1176,-0.3556 1.6764,-0.635 l 0.635,2.032 q -0.1778,0.127 -0.635,0.3302 -0.4572,0.1778 -1.143,0.3556 -0.6858,0.1778 -1.6002,0.3048 -0.9144,0.127 -1.9812,0.127 z" />
      <path
         id="path1000"
         style="font-style:normal;font-variant:normal;font-weight:normal;font-stretch:normal;font-size:25.4px;font-family:Ubuntu;-inkscape-font-specification:Ubuntu;fill:#4c4c4c;fill-opacity:1;stroke-width:100;stroke-miterlimit:4;stroke-dasharray:none"
         d="m 105.88518,177.93487 v 2.1336 H 95.293383 v -17.6022 h 2.4638 v 15.4686 z" />
      <path
         id="path1002"
         style="font-style:normal;font-variant:normal;font-weight:normal;font-stretch:normal;font-size:25.4px;font-family:Ubuntu;-inkscape-font-specification:Ubuntu;fill:#4c4c4c;fill-opacity:1;stroke-width:100;stroke-miterlimit:4;stroke-dasharray:none"
         d="m 112.3209,178.31587 q 3.8608,0 3.8608,-2.6416 0,-0.8128 -0.3556,-1.3716 -0.3302,-0.5842 -0.9144,-0.9906 -0.5842,-0.4318 -1.3462,-0.7366 -0.7366,-0.3048 -1.5748,-0.6096 -0.9652,-0.3302 -1.8288,-0.7366 -0.8636,-0.4318 -1.4986,-0.9906 -0.635,-0.5842 -1.016,-1.3716 -0.3556,-0.7874 -0.3556,-1.905 0,-2.3114 1.5748,-3.6068 1.5748,-1.2954 4.3434,-1.2954 1.6002,0 2.8956,0.3556 1.3208,0.3302 1.9304,0.7366 l -0.7874,2.0066 q -0.5334,-0.3302 -1.6002,-0.635 -1.0414,-0.3302 -2.4384,-0.3302 -0.7112,0 -1.3208,0.1524 -0.6096,0.1524 -1.0668,0.4572 -0.4572,0.3048 -0.7366,0.7874 -0.254,0.4572 -0.254,1.0922 0,0.7112 0.2794,1.1938 0.2794,0.4826 0.7874,0.8636 0.508,0.3556 1.1684,0.6604 0.6858,0.3048 1.4986,0.6096 1.143,0.4572 2.0828,0.9144 0.9652,0.4572 1.651,1.0922 0.7112,0.635 1.0922,1.524 0.381,0.8636 0.381,2.1082 0,2.3114 -1.7018,3.556 -1.6764,1.2446 -4.7498,1.2446 -1.0414,0 -1.9304,-0.1524 -0.8636,-0.127 -1.5494,-0.3048 -0.6858,-0.2032 -1.1938,-0.4064 -0.4826,-0.2286 -0.762,-0.381 l 0.7366,-2.032 q 0.5842,0.3302 1.778,0.7366 1.1938,0.4064 2.921,0.4064 z" />
      <path
         id="path1004"
         style="font-style:normal;font-variant:normal;font-weight:normal;font-stretch:normal;font-size:25.4px;font-family:Ubuntu;-inkscape-font-specification:Ubuntu;fill:#4c4c4c;fill-opacity:1;stroke-width:100;stroke-miterlimit:4;stroke-dasharray:none"
         d="m 133.22748,180.06847 q -0.4318,-1.143 -0.8128,-2.2352 -0.381,-1.1176 -0.7874,-2.2606 h -7.9756 l -1.6002,4.4958 h -2.5654 q 1.016,-2.794 1.905,-5.1562 0.889,-2.3876 1.7272,-4.5212 0.8636,-2.1336 1.7018,-4.064 0.8382,-1.9558 1.7526,-3.8608 h 2.2606 q 0.9144,1.905 1.7526,3.8608 0.8382,1.9304 1.6764,4.064 0.8636,2.1336 1.7526,4.5212 0.889,2.3622 1.905,5.1562 z m -2.3114,-6.5278 q -0.8128,-2.2098 -1.6256,-4.2672 -0.7874,-2.0828 -1.651,-3.9878 -0.889,1.905 -1.7018,3.9878 -0.7874,2.0574 -1.5748,4.2672 z" />
      <path
         id="path1006"
         style="font-style:normal;font-variant:normal;font-weight:normal;font-stretch:normal;font-size:25.4px;font-family:Ubuntu;-inkscape-font-specification:Ubuntu;fill:#4c4c4c;fill-opacity:1;stroke-width:100;stroke-miterlimit:4;stroke-dasharray:none"
         d="m 148.77108,171.40707 h 2.4638 v 8.2296 q -0.3048,0.1016 -0.889,0.2286 -0.5588,0.127 -1.3208,0.254 -0.7366,0.127 -1.6256,0.2032 -0.889,0.1016 -1.8034,0.1016 -1.8542,0 -3.3782,-0.6096 -1.524,-0.6096 -2.6162,-1.778 -1.0922,-1.1684 -1.7018,-2.8702 -0.5842,-1.7018 -0.5842,-3.9116 0,-2.2098 0.6604,-3.9116 0.6858,-1.7272 1.8288,-2.8956 1.143,-1.1684 2.667,-1.778 1.5494,-0.6096 3.302,-0.6096 1.1938,0 2.1082,0.1524 0.9398,0.1524 1.6002,0.3556 0.6604,0.2032 1.0668,0.4064 0.4318,0.2032 0.5842,0.3048 l -0.7874,2.0574 q -0.7366,-0.4826 -1.9558,-0.7874 -1.2192,-0.3302 -2.4892,-0.3302 -1.3462,0 -2.4638,0.4826 -1.0922,0.4826 -1.8796,1.397 -0.762,0.9144 -1.1938,2.2352 -0.4318,1.2954 -0.4318,2.921 0,1.5748 0.3556,2.8702 0.381,1.2954 1.1176,2.2352 0.762,0.9144 1.8542,1.4224 1.1176,0.508 2.6162,0.508 1.0668,0 1.8034,-0.1016 0.762,-0.127 1.0922,-0.2286 z" />
    </g>
    <ellipse
       ry="9.2679329"
       rx="9.5118322"
       cy="171.66484"
       cx="67.79734"
       id="path78-8"
       style="opacity:1;fill:#ffffff;fill-opacity:1;stroke:#ff6600;stroke-width:1.61317;stroke-miterlimit:4;stroke-dasharray:none;stroke-opacity:1" />
    <ellipse
       ry="9.2679329"
       rx="9.5118322"
       cy="171.66479"
       cx="65.018387"
       id="path78-80"
       style="opacity:1;fill:#ffffff;fill-opacity:1;stroke:#ff6600;stroke-width:1.61317;stroke-miterlimit:4;stroke-dasharray:none;stroke-opacity:1" />
    <ellipse
       ry="9.2679329"
       rx="9.5118322"
       cy="171.66481"
       cx="62.0569"
       id="path78-7"
       style="opacity:1;fill:#ffffff;fill-opacity:1;stroke:#ff6600;stroke-width:1.61317;stroke-miterlimit:4;stroke-dasharray:none;stroke-opacity:1" />
    <ellipse
       ry="9.2679329"
       rx="9.5118322"
       cy="171.66483"
       cx="58.943283"
       id="path78-70"
       style="fill:#ffffff;fill-opacity:1;stroke:#ff6600;stroke-width:1.61317;stroke-miterlimit:4;stroke-dasharray:none;stroke-opacity:1" />
  </g>
  <g
     style="opacity:1"
     inkscape:label="Layer 2"
     id="layer2"
     inkscape:groupmode="layer">
    <ellipse
       ry="7.7145"
       rx="7.4302816"
       cy="171.65041"
       cx="58.89275"
       id="path967"
       style="opacity:1;fill:#4c4c4c;stroke-width:2.51637;stroke-miterlimit:4;stroke-dasharray:none;fill-opacity:1" />
    <path
       sodipodi:nodetypes="cssccsssccc"
       style="opacity:1;fill:#ffffff;stroke-width:0.0698942"
       id="path942-9"
       d="m 60.119851,174.04448 c 0.05638,0.33068 -0.17313,0.60144 -0.510015,0.60144 h -1.689824 c -0.337092,0 -0.566555,-0.27076 -0.510153,-0.60144 l 0.444668,-2.60539 c -0.459064,-0.29726 -0.763241,-0.81138 -0.763241,-1.39739 0,-0.92037 0.749329,-1.66647 1.673534,-1.66647 0.924275,0 1.673466,0.7461 1.673466,1.66647 0,0.58601 -0.304108,1.10013 -0.763026,1.39739 l 0.445921,2.60494 z" />
  </g>
</svg>
